<svg width="77" height="102" viewBox="0 0 77 102" fill="none" xmlns="http://www.w3.org/2000/svg">
<path fill-rule="evenodd" clip-rule="evenodd" d="M57 1H4C2.34315 1 1 2.34314 1 4V98C1 99.6569 2.34315 101 4 101H73C74.6569 101 76 99.6569 76 98V20L57 1Z" fill="#FF9AA6"/>
<path d="M57 1L57.7071 0.292893L57.4142 0H57V1ZM76 20H77V19.5858L76.7071 19.2929L76 20ZM4 2H57V0H4V2ZM2 4C2 2.89543 2.89543 2 4 2V0C1.79086 0 0 1.79086 0 4H2ZM2 98V4H0V98H2ZM4 100C2.89543 100 2 99.1046 2 98H0C0 100.209 1.79086 102 4 102V100ZM73 100H4V102H73V100ZM75 98C75 99.1046 74.1046 100 73 100V102C75.2091 102 77 100.209 77 98H75ZM75 20V98H77V20H75ZM76.7071 19.2929L57.7071 0.292893L56.2929 1.70711L75.2929 20.7071L76.7071 19.2929Z" fill="#C8747E"/>
<path d="M56 0V21H77" stroke="#C8747E" stroke-width="2"/>
<path d="M31.9238 61H27.8223L19.8379 47.9023V61H15.7363V41.0938H19.8379L27.8359 54.2188V41.0938H31.9238V61ZM36.4902 62.709H33.5508L40.8789 41.0938H43.8184L36.4902 62.709ZM57.2168 56.8984H50.0254L48.6582 61H44.2969L51.707 41.0938H55.5078L62.959 61H58.5977L57.2168 56.8984ZM51.1328 53.5762H56.1094L53.6074 46.125L51.1328 53.5762Z" fill="#C8747E"/>
</svg>
